<?xml version="1.0" encoding="UTF-8"?>
<svg id="Capa_5" data-name="Capa 5" xmlns="http://www.w3.org/2000/svg" xmlns:xlink="http://www.w3.org/1999/xlink" viewBox="0 0 1497.94 892.5">
  <defs>
    <style>
      .cls-1 {
        fill: url(#Cielo);
      }

      .cls-1, .cls-2, .cls-3, .cls-4 {
        stroke-width: 0px;
      }

      .cls-5 {
        font-family: Inter-Bold, Inter;
        font-size: 193.33px;
        font-variation-settings: 'opsz' 14, 'wght' 700;
        font-weight: 700;
      }

      .cls-2 {
        fill: url(#Orquídea);
      }

      .cls-3 {
        fill: url(#Verano);
      }

      .cls-6 {
        letter-spacing: -.1em;
      }

      .cls-4 {
        fill: url(#Blanco_Negro);
      }
    </style>
    <linearGradient id="Cielo" x1="540.08" y1="483.68" x2="663.72" y2="483.68" gradientTransform="translate(202.2 -214.35)" gradientUnits="userSpaceOnUse">
      <stop offset="0" stop-color="#cce0f4"/>
      <stop offset=".06" stop-color="#c2dcf2"/>
      <stop offset=".17" stop-color="#a9d2ee"/>
      <stop offset=".31" stop-color="#7fc2e7"/>
      <stop offset=".46" stop-color="#46abdd"/>
      <stop offset=".57" stop-color="#1e9cd7"/>
      <stop offset=".87" stop-color="#0075be"/>
      <stop offset=".99" stop-color="#005b97"/>
    </linearGradient>
    <radialGradient id="Verano" cx="1041.26" cy="268.05" fx="1041.26" fy="268.05" r="65.87" gradientUnits="userSpaceOnUse">
      <stop offset="0" stop-color="#fff"/>
      <stop offset=".09" stop-color="#ffecd8"/>
      <stop offset=".21" stop-color="#ffd4a7"/>
      <stop offset=".33" stop-color="#ffc07d"/>
      <stop offset=".46" stop-color="#ffb05a"/>
      <stop offset=".59" stop-color="#ffa340"/>
      <stop offset=".72" stop-color="#ff9a2d"/>
      <stop offset=".86" stop-color="#ff9421"/>
      <stop offset="1" stop-color="#ff931e"/>
    </radialGradient>
    <linearGradient id="Blanco_Negro" data-name="Blanco, Negro" x1="430.14" y1="849.1" x2="569.51" y2="849.1" gradientTransform="translate(-173.42 -579.77)" gradientUnits="userSpaceOnUse">
      <stop offset="0" stop-color="#fff"/>
      <stop offset="1" stop-color="#000"/>
    </linearGradient>
    <linearGradient id="Orquídea" x1="644.49" y1="-61.83" x2="783.86" y2="-61.83" gradientTransform="translate(-545.51 331.15)" gradientUnits="userSpaceOnUse">
      <stop offset="0" stop-color="#ff7bac"/>
      <stop offset=".22" stop-color="#ff7bac" stop-opacity=".76"/>
      <stop offset=".6" stop-color="#ff7bac" stop-opacity=".36"/>
      <stop offset=".87" stop-color="#ff7bac" stop-opacity=".1"/>
      <stop offset="1" stop-color="#ff7bac" stop-opacity="0"/>
    </linearGradient>
  </defs>
  <path class="cls-1" d="m742.28,199.64h53.95c38.46,0,69.69,31.23,69.69,69.69h0c0,38.46-31.23,69.69-69.69,69.69h-53.95v-139.38h0Z" transform="translate(1608.2 538.65) rotate(-180)"/>
  <text class="cls-5" transform="translate(78 339.01)"><tspan x="0" y="0" xml:space="preserve">M   </tspan><tspan class="cls-6" x="317.46" y="0">L</tspan><tspan x="408.18" y="0" xml:space="preserve">TIME   iA</tspan></text>
  <path class="cls-3" d="m979.44,198.36h53.95c38.46,0,69.69,31.23,69.69,69.69h0c0,38.46-31.23,69.69-69.69,69.69h-53.95v-139.38h0Z"/>
  <path class="cls-4" d="m256.71,207.5h77.56c34.12,0,61.82,27.7,61.82,61.82h0c0,34.12-27.7,61.82-61.82,61.82h-77.56v-123.64h0Z" transform="translate(595.73 -57.08) rotate(90)"/>
  <path class="cls-2" d="m98.98,191.4h61.45c43.01,0,77.93,34.92,77.93,77.93h0c0,43.01-34.92,77.93-77.93,77.93h-61.45v-155.86h0Z" transform="translate(-100.65 437.99) rotate(-90)"/>
</svg>